<svg version="1.2" xmlns="http://www.w3.org/2000/svg" viewBox="0 0 135 120" width="135" height="120"><style>.a{fill:#2c2e35}</style><path fill-rule="evenodd" class="a" d="m101.9 119.7c-1 0-1.9-0.8-2.1-1.8l-21.6-108.4c-0.1-0.6 0-1.2 0.3-1.7 0.4-0.5 0.9-0.8 1.4-0.9l30.1-6c1.2-0.2 2.3 0.5 2.6 1.7l21.6 108.5c0.1 0.5-0.1 1.1-0.4 1.6-0.3 0.5-0.8 0.8-1.4 1l-30 5.9q-0.2 0.1-0.5 0.1zm-18.9-108.9l20.7 104.1 25.7-5.1-20.7-104.1zm21 77.6c-1 0-2-0.8-2.2-1.8-0.2-1.2 0.6-2.4 1.8-2.6l14.1-2.8c1.2-0.2 2.3 0.5 2.6 1.7 0.2 1.2-0.6 2.4-1.8 2.6l-14.1 2.8q-0.2 0.1-0.4 0.1zm-5.5-58.8c-3.8 0-7.1-2.7-7.8-6.4-0.9-4.4 1.9-8.6 6.2-9.4q0.8-0.2 1.6-0.2c3.8 0 7.1 2.7 7.8 6.4 0.4 2.1 0 4.3-1.2 6-1.1 1.8-3 3-5.1 3.4q-0.7 0.2-1.5 0.2zm0-11.6q-0.4 0-0.7 0.1c-1.9 0.4-3.2 2.3-2.8 4.2 0.4 1.9 2.3 3.2 4.2 2.8 0.9-0.2 1.7-0.7 2.3-1.5 0.5-0.8 0.7-1.8 0.5-2.7-0.3-1.7-1.8-2.9-3.5-2.9zm7.3 79.5c-1 0-1.9-0.7-2.1-1.8-0.3-1.2 0.5-2.3 1.7-2.6l14.1-2.8c1.2-0.2 2.4 0.6 2.6 1.8 0.2 1.2-0.5 2.3-1.7 2.6l-14.1 2.8q-0.3 0-0.5 0zm1.8 9.2c-1 0-1.9-0.8-2.1-1.8-0.3-1.2 0.5-2.4 1.7-2.6l14.1-2.8c1.2-0.3 2.4 0.5 2.6 1.7 0.3 1.2-0.5 2.4-1.7 2.6l-14.1 2.8q-0.2 0.1-0.5 0.1zm-107.4-99.8c0-1.2 1-2.2 2.2-2.2h30.7c1.2 0 2.2 1 2.2 2.2v110.5c0 1.3-1 2.3-2.2 2.3h-30.7c-1.2 0-2.2-1-2.2-2.3zm4.4 108.4h26.2v-106.1h-26.2zm13.1-84.5c-4.4 0-7.9-3.6-7.9-8 0-4.4 3.5-8 7.9-8 4.5 0 8 3.6 8 8 0 4.4-3.5 8-8 8zm3.6-8c0-2-1.6-3.6-3.6-3.6-1.9 0-3.5 1.6-3.5 3.6 0 2 1.6 3.6 3.5 3.6 2 0 3.6-1.6 3.6-3.6zm3.6 75.9h-14.4c-1.2 0-2.2-1-2.2-2.2 0-1.2 1-2.2 2.2-2.2h14.4c1.3 0 2.2 1 2.2 2.2 0 1.2-0.9 2.2-2.2 2.2zm0 9.3h-14.4c-1.2 0-2.2-0.9-2.2-2.2 0-1.2 1-2.2 2.2-2.2h14.4c1.3 0 2.2 1 2.2 2.2 0 1.3-0.9 2.2-2.2 2.2zm0-18.6h-14.4c-1.2 0-2.2-1-2.2-2.2 0-1.2 1-2.2 2.2-2.2h14.4c1.3 0 2.2 1 2.2 2.2 0 1.2-0.9 2.2-2.2 2.2zm15.7-82.5c0-1.2 0.9-2.2 2.2-2.2h30.6c1.2 0 2.2 1 2.2 2.2v110.6c0 1.2-1 2.2-2.2 2.2h-30.6c-1.3 0-2.2-1-2.2-2.2zm4.4 108.3h26.2v-106.1h-26.2zm13.1-84.5c-4.4 0-8-3.6-8-8 0-4.4 3.6-8 8-8 4.4 0 8 3.6 8 8 0 4.4-3.6 8-8 8zm3.6-8c0-2-1.6-3.6-3.6-3.6-2 0-3.6 1.6-3.6 3.6 0 2 1.6 3.6 3.6 3.6 2 0 3.6-1.6 3.6-3.6zm3.6 75.9h-14.4c-1.2 0-2.2-0.9-2.2-2.2 0-1.2 1-2.2 2.2-2.2h14.4c1.2 0 2.2 1 2.2 2.2 0 1.3-1 2.2-2.2 2.2zm0 9.4h-14.4c-1.2 0-2.2-1-2.2-2.2 0-1.3 1-2.3 2.2-2.3h14.4c1.2 0 2.2 1 2.2 2.3 0 1.2-1 2.2-2.2 2.2zm0-18.7h-14.4c-1.2 0-2.2-1-2.2-2.2 0-1.2 1-2.2 2.2-2.2h14.4c1.2 0 2.2 1 2.2 2.2 0 1.2-1 2.2-2.2 2.2z"/></svg>