<svg version="1.2" xmlns="http://www.w3.org/2000/svg" viewBox="0 0 117 108" width="117" height="108"><style>.a{fill:#2c2e35}</style><path fill-rule="evenodd" class="a" d="m33.5 23.7v-7c0-8.9 7.1-16 15.9-16h18.3c8.8 0 16 7.1 16 15.9v7.1h23.3c5.1 0 9.3 4.2 9.3 9.3v65.6c0 5.2-4.2 9.4-9.3 9.4h-96.8c-5.2 0-9.4-4.2-9.4-9.4v-65.6c0-5.1 4.2-9.3 9.4-9.3zm30.3 50.3h-10.6c-2.6 0-4.8-2.1-4.8-4.7v-7.8h-43.2v37.1c0 2.7 2.2 5 4.9 5h96.8c2.7 0 4.9-2.3 4.9-5v-37.1h-43.3l0.1 7.8c0 2.6-2.2 4.7-4.8 4.7zm15.4-50.3v-7.1c0-6.3-5.2-11.5-11.6-11.5h-18.2c-6.4 0-11.6 5.2-11.6 11.5v7.1h5.1v-7.1c0-3.6 2.9-6.5 6.5-6.5h18.2c3.6 0 6.5 3 6.5 6.5v7.1zm-69 4.4c-2.8 0-5 2.2-5 4.9v24.1h106.7v-24.1c0-2.7-2.2-4.9-4.9-4.9zm59.6-4.4v-7.1c0-1.1-1-2-2.1-2h-18.3c-1.1 0-2.1 0.9-2.1 2l0.1 7.1zm-16.9 37.8v7.8c0 0.1 0.2 0.3 0.3 0.3h10.7c0.2 0 0.3-0.2 0.3-0.3v-7.8z"/></svg>