<svg version="1.2" xmlns="http://www.w3.org/2000/svg" viewBox="0 0 140 121" width="140" height="121"><style>.a{fill:#2c2e35}</style><path fill-rule="evenodd" class="a" d="m33.7 102.2c-2.4 0-4.7-1-6.5-2.8-1.8-1.8-2.7-4.3-2.7-6.7-2.6 0.1-4.9-0.9-6.7-2.7-3.4-3.4-3.6-8.9-0.4-12.1l9.7-9.6-25.5-25.5c-1.2-1.2-1.2-3.4 0-4.6l34.9-34.9c0.6-0.6 1.5-1 2.4-1 0.8 0 1.7 0.4 2.3 1l11.9 11.9h31.9l14.2-14.2c1.2-1.2 3.4-1.2 4.6 0l34.9 34.9c0.6 0.6 1 1.5 1 2.4 0 0.8-0.4 1.7-1 2.3l-24.6 24.6 6.6 6.5c3.2 3.2 3 8.7-0.5 12.1-1.7 1.8-4 2.8-6.4 2.8-0.2 2.3-1.1 4.8-3 6.7-1.7 1.7-4.1 2.7-6.4 2.7-0.2 2.3-1.1 4.8-3 6.7-1.7 1.7-4.1 2.7-6.4 2.7-0.2 2.4-1.1 4.8-3 6.7-1.7 1.7-4.1 2.7-6.5 2.7-2.1 0-4.1-0.8-5.6-2.3l-9.1-9c-0.1 1.8-0.9 3.5-2.2 4.8l-10.4 10.4c-1.5 1.5-3.5 2.3-5.7 2.3-2.3 0-4.7-1-6.4-2.7-1.7-1.7-2.6-3.8-2.7-6.1q-0.1-0.3-0.1-0.6c-2.6 0-4.9-1-6.6-2.7-1.9-1.9-2.8-4.4-2.8-6.7zm67.2-31.5l10.4 10.4c1.4 1.5 4.2 1.3 5.9-0.4 0.8-0.9 1.3-2 1.4-3.1 0-1.1-0.3-2.1-1-2.8l-10.4-10.3c-0.7-0.7-1.6-1.1-2.6-1.1-1.2 0-2.4 0.6-3.3 1.5-1.7 1.7-1.9 4.3-0.4 5.8zm-9.4 9.5l10.4 10.4c1.4 1.4 4.2 1.2 5.8-0.5 1.8-1.7 2-4.3 0.5-5.8l-10.4-10.4c-0.7-0.7-1.6-1-2.6-1-1.2 0-2.4 0.5-3.3 1.4-1.7 1.7-1.9 4.4-0.4 5.9zm-9.4 9.4l10.4 10.4c1.4 1.4 4.2 1.2 5.8-0.5 1.8-1.7 1.9-4.3 0.4-5.8l-10.3-10.4c-0.7-0.7-1.6-1-2.6-1-1.2 0-2.4 0.5-3.3 1.4-1.7 1.7-1.9 4.4-0.4 5.9zm-5.7 2.1c-1.2 0-2.4 0.5-3.3 1.4-1.8 1.8-1.9 4.4-0.5 5.9l10.4 10.4c1.5 1.4 4.2 1.2 5.9-0.4 0.9-0.9 1.4-2 1.4-3.2 0.1-1-0.3-2-1-2.7l-10.4-10.4c-0.6-0.6-1.5-1-2.5-1zm12.7-74.3l33.3 33.3 12.4-12.4-33.3-33.3zm-29.8 81.4l-10.4 10.4c-0.7 0.7-1.1 1.7-1 2.7 0 1.2 0.5 2.3 1.4 3.2 1.7 1.6 4.4 1.8 5.9 0.4l10.4-10.4c0.7-0.7 1-1.7 1-2.7-0.1-1.2-0.6-2.3-1.5-3.2-0.9-0.9-2.1-1.4-3.3-1.4-1 0-1.9 0.4-2.5 1zm-9.4-9.4l-10.4 10.4c-1.5 1.5-1.3 4.1 0.4 5.9 1.7 1.6 4.4 1.8 5.9 0.4l10.3-10.4c1.5-1.5 1.4-4.1-0.4-5.9-0.9-0.9-2.1-1.4-3.3-1.4-1 0-1.9 0.4-2.5 1zm-23-2.1l10.4-10.4c0.7-0.7 1.1-1.7 1-2.8 0-1.1-0.5-2.2-1.4-3.1-0.9-0.9-2.1-1.4-3.3-1.4-1 0-1.9 0.3-2.6 1l-10.4 10.4c-0.7 0.7-1 1.6-1 2.7 0.1 1.2 0.6 2.3 1.5 3.1 1.6 1.7 4.4 1.9 5.8 0.5zm14.8-58v-2.8c0-4.5 2.6-8.4 6.4-10.2l-9.1-9.2-33.3 33.3 12.4 12.5zm-20.4 26.7l9.6 9.6q1.2-0.5 2.7-0.5c2.3 0 4.7 1 6.4 2.8 1.9 1.8 2.8 4.3 2.8 6.6 2.6 0 4.9 1 6.6 2.8 1.7 1.6 2.7 3.8 2.8 6q0 0.3 0 0.7c2.6 0 4.9 1 6.7 2.7 1.8 1.9 2.7 4.3 2.7 6.7 2.2 0 4.2 0.7 5.8 1.9 0.2-1.9 1.1-3.8 2.6-5.4 1.8-1.7 4.1-2.7 6.5-2.7 0.2-0.2 0.2-0.4 0.2-0.7 0.1-2.2 1.1-4.3 2.7-6 1.8-1.7 4.1-2.7 6.5-2.7 0.2-2.4 1.1-4.8 3-6.7 1.7-1.7 4-2.7 6.4-2.7 0.2-0.3 0.2-0.5 0.3-0.7 0.1-2.2 1-4.4 2.7-6q0.7-0.8 1.6-1.3l-22.9-22.9h-11.4l-6.1 6.2v15.6c0 5.1-4 9.2-8.9 9.2-4.9 0-8.9-4.1-8.9-9.2v-23.8zm64-36.4h-32.1q-1 0-2 0.3c-2.2 0.6-4.1 2.4-4.7 4.7q-0.3 1-0.3 2v32.7c0 2.7 2 4.8 4.5 4.8 2.4 0 4.4-2.1 4.4-4.8v-16.5c0-0.6 0.3-1.2 0.7-1.6l7.4-7.4c0.4-0.4 1-0.7 1.6-0.7h13.1c0.6 0 1.2 0.3 1.6 0.7l25.2 25.2c2.3 0 4.3 0.8 5.8 2.3l0.7 0.7 8.2-8.2zm-42.2 59.4c-1 0-1.9 0.3-2.5 1l-10.4 10.4c-1.5 1.5-1.3 4.1 0.4 5.8 1.7 1.7 4.4 1.9 5.9 0.5l10.4-10.4c0.7-0.7 1-1.7 1-2.8-0.1-1.1-0.6-2.2-1.5-3.1-0.9-0.9-2.1-1.4-3.3-1.4z"/></svg>