<svg version="1.2" xmlns="http://www.w3.org/2000/svg" viewBox="0 0 144 117" width="144" height="117"><style>.a{fill:#2c2e35}</style><path fill-rule="evenodd" class="a" d="m69.8 102.5v-8.1h-51.1c-5.3 0-9.6-4.3-9.6-9.6v-69h-6.4c-1.2 0-2.2-1-2.2-2.2v-10.8c0-1.2 1-2.2 2.2-2.2h139c1.3 0 2.2 1 2.2 2.2v10.8c0 1.2-0.9 2.2-2.2 2.2h-6.8v69c0 5.3-4.3 9.6-9.6 9.6h-51.1v8.1c3 1 5.2 3.8 5.2 7.1 0 4.1-3.3 7.4-7.4 7.4-4.1 0-7.4-3.3-7.4-7.4 0-3.3 2.2-6.1 5.2-7.1zm60.7-86.7h-117v69c0 2.8 2.3 5.1 5.2 5.1h106.6c2.9 0 5.2-2.3 5.2-5.1zm-58.5 90.8c-1.6 0-3 1.3-3 3 0 1.6 1.4 3 3 3 1.6 0 3-1.4 3-3 0-1.7-1.4-3-3-3zm-67.1-95.2h134.6v-6.4h-134.6zm63.2 64.4c-14.8 0-26.8-12-26.8-26.8 0-14.8 12-26.8 26.8-26.8 14.8 0 26.9 12 26.9 26.8 0 1.2-1 2.2-2.2 2.2h-22.4v22.4c0 1.3-1 2.2-2.3 2.2zm0-49.2c-12.3 0-22.4 10.1-22.4 22.4 0 11.6 8.9 21.2 20.2 22.3v-22.3c0-1.2 1-2.2 2.2-2.2h22.3c-1.1-11.3-10.6-20.2-22.3-20.2zm7.8 57c-1.3 0-2.3-1-2.3-2.3v-24.6c0-1.2 1-2.2 2.3-2.2h24.6c1.2 0 2.2 1 2.2 2.2 0 14.8-12 26.9-26.8 26.9zm2.2-24.7v20.1c10.6-1 19-9.5 20.1-20.1z"/></svg>