<svg version="1.2" xmlns="http://www.w3.org/2000/svg" viewBox="0 0 94 130" width="94" height="130"><style>.a{fill:#2c2e35}</style><path fill-rule="evenodd" class="a" d="m60.1 14.7v-11.8c0-1.2 1-2.2 2.2-2.2 1.2 0 2.2 1 2.2 2.2v12.1c4.1 1 7.1 4.6 7.1 9v66.7c0 5.1-4.2 9.2-9.3 9.2h-30.4c-5.1 0-9.3-4.1-9.3-9.2v-66.7c0-5.1 4.2-9.3 9.3-9.3zm-28.2 4.4c-2.7 0-4.8 2.2-4.8 4.9v66.7c0 2.6 2.1 4.8 4.8 4.8h30.4c2.7 0 4.8-2.2 4.8-4.8v-66.7c0-2.7-2.1-4.9-4.8-4.9zm28.1 26.5h-25.8c-1.2 0-2.2-1-2.2-2.2v-15.5c0-1.3 1-2.3 2.2-2.3h25.8c1.3 0 2.2 1 2.2 2.3v15.5c0 1.2-0.9 2.2-2.2 2.2zm-23.6-4.4h21.4v-11.1h-21.4zm22.4 20.2c-1.9 0-3.4-1.6-3.4-3.5 0-1.9 1.5-3.5 3.4-3.5 2 0 3.5 1.6 3.5 3.5 0 1.9-1.5 3.5-3.5 3.5zm-23.8 0c-1.9 0-3.5-1.6-3.5-3.5 0-1.9 1.6-3.5 3.5-3.5 1.9 0 3.5 1.6 3.5 3.5 0 1.9-1.6 3.5-3.5 3.5zm-3.5 8.4c0-1.9 1.6-3.5 3.5-3.5 1.9 0 3.5 1.6 3.5 3.5 0 1.9-1.6 3.5-3.5 3.5-1.9 0-3.5-1.6-3.5-3.5zm15.4 3.5c-1.9 0-3.4-1.6-3.4-3.5 0-1.9 1.5-3.5 3.4-3.5 1.9 0 3.5 1.6 3.5 3.5 0 1.9-1.6 3.5-3.5 3.5zm11.9 0c-1.9 0-3.4-1.6-3.4-3.5 0-1.9 1.5-3.5 3.4-3.5 2 0 3.5 1.6 3.5 3.5 0 1.9-1.5 3.5-3.5 3.5zm32.8 56.3h-89c-1.2 0-2.2-0.9-2.2-2.2v-52.2c0-1.2 1-2.2 2.2-2.2h11.5c1.2 0 2.2 1 2.2 2.2v30.1h61.6v-30.1c0-1.2 1-2.2 2.2-2.2h11.5c0.5 0 1.1 0.2 1.5 0.7 0.4 0.4 0.7 0.9 0.7 1.5v52.2c0 1.3-1 2.2-2.2 2.2zm-86.7-4.4h84.5v-47.8h-7.1v30.1c0 1.3-1 2.2-2.2 2.2h-66c-1.2 0-2.2-0.9-2.2-2.2v-30.1h-7zm53.9-40c-1.9 0-3.4-1.6-3.4-3.5 0-1.9 1.5-3.5 3.4-3.5 2 0 3.5 1.6 3.5 3.5 0 1.9-1.5 3.5-3.5 3.5zm-11.9-23.8c-1.9 0-3.4-1.6-3.4-3.5 0-1.9 1.5-3.5 3.4-3.5 1.9 0 3.5 1.6 3.5 3.5 0 1.9-1.6 3.5-3.5 3.5zm-15.4 20.3c0-1.9 1.6-3.5 3.5-3.5 1.9 0 3.5 1.6 3.5 3.5 0 1.9-1.6 3.5-3.5 3.5-1.9 0-3.5-1.6-3.5-3.5zm15.4 3.5c-1.9 0-3.4-1.6-3.4-3.5 0-1.9 1.5-3.5 3.4-3.5 1.9 0 3.5 1.6 3.5 3.5 0 1.9-1.6 3.5-3.5 3.5z"/></svg>