<svg version="1.2" xmlns="http://www.w3.org/2000/svg" viewBox="0 0 105 116" width="105" height="116"><style>.a{fill:#2c2e35}</style><path fill-rule="evenodd" class="a" d="m19.1 88.2c-6.4 0-11.7-5.2-11.7-11.6 0-6.4 5.3-11.6 11.7-11.6 6.4 0 11.6 5.2 11.6 11.6 0 6.4-5.2 11.6-11.6 11.6zm0-18.8c-4 0-7.2 3.2-7.2 7.2 0 3.9 3.2 7.2 7.2 7.2 3.9 0 7.2-3.3 7.2-7.2 0-4-3.3-7.2-7.2-7.2zm21.4 18.4c-0.5 0-1-0.2-1.4-0.6-1-0.8-1.1-2.2-0.3-3.1l11.6-13.5v-11.9c0-1.2 1-2.2 2.2-2.2 1.2 0 2.2 1 2.2 2.2v11.9l11.6 13.5c0.8 0.9 0.7 2.3-0.2 3.1-0.4 0.4-1 0.6-1.5 0.6-0.6 0-1.2-0.3-1.6-0.8l-10.5-12.2-10.4 12.2c-0.5 0.5-1.1 0.8-1.7 0.8zm28.9-37.1h-33.5c-1.2 0-2.2-1-2.2-2.2v-17.7c0-0.9 0.6-1.8 1.5-2.1l10.9-3.6c1-0.3 2.1 0.1 2.6 1.1l3.9 7.2 3.9-7.2c0.5-1 1.7-1.4 2.7-1.1l10.8 3.6c1 0.3 1.6 1.2 1.6 2.1v17.4q0 0.1 0 0.3c0 1.2-1 2.2-2.2 2.2zm-31.3-4.4h29v-13.9l-7.6-2.5-4.9 9.2c-0.4 0.7-1.2 1.2-2 1.2-0.8 0-1.5-0.5-1.9-1.2l-5-9.2-7.6 2.5zm14.5-22.7c-6.4 0-11.6-5.2-11.6-11.6 0-6.4 5.2-11.6 11.6-11.6 6.4 0 11.6 5.2 11.6 11.6 0 6.4-5.2 11.6-11.6 11.6zm0-18.8c-3.9 0-7.2 3.3-7.2 7.2 0 4 3.3 7.2 7.2 7.2 4 0 7.2-3.2 7.2-7.2 0-3.9-3.2-7.2-7.2-7.2zm50.3 110.6h-33.5c-1.2 0-2.2-1-2.2-2.2v-17.7c0-0.9 0.6-1.8 1.5-2.1l10.9-3.6c1-0.3 2.2 0.1 2.7 1l3.9 7.3 3.9-7.3c0.5-0.9 1.6-1.3 2.6-1l10.9 3.6c0.9 0.3 1.5 1.2 1.5 2.1v17.7c0 1.2-1 2.2-2.2 2.2zm-31.2-4.4h29v-13.9l-7.6-2.5-5 9.2c-0.4 0.7-1.1 1.1-1.9 1.1-0.8 0-1.6-0.4-2-1.1l-4.9-9.2-7.6 2.5zm14.5-22.7c-6.4 0-11.6-5.2-11.6-11.6 0-6.4 5.2-11.6 11.6-11.6 6.4 0 11.6 5.2 11.6 11.6 0 6.4-5.2 11.6-11.6 11.6zm0-18.8c-4 0-7.2 3.2-7.2 7.2 0 4 3.2 7.2 7.2 7.2 3.9 0 7.2-3.2 7.2-7.2 0-4-3.3-7.2-7.2-7.2zm-50.4 45.9h-33.5c-1.2 0-2.2-1-2.2-2.2v-17.6c0-1 0.6-1.8 1.5-2.1l10.9-3.6c1-0.4 2.1 0.1 2.6 1l4 7.2 3.9-7.2c0.5-0.9 1.6-1.4 2.6-1l10.9 3.6c0.9 0.3 1.5 1.1 1.5 2.1v17.3q0 0.1 0 0.3c0 1.2-1 2.2-2.2 2.2zm-31.3-4.4h29.1v-13.8l-7.6-2.6-5 9.2c-0.4 0.7-1.1 1.2-1.9 1.2-0.9 0-1.6-0.5-2-1.2l-5-9.2-7.6 2.6z"/></svg>